<?xml version="1.0" encoding="UTF-8"?>
<svg xmlns="http://www.w3.org/2000/svg" xmlns:xlink="http://www.w3.org/1999/xlink" width="375pt" height="374.999991pt" viewBox="0 0 375 374.999991" version="1.2">
<g id="surface1">
<path style=" stroke:none;fill-rule:nonzero;fill:rgb(100%,8.628845%,8.628845%);fill-opacity:1;" d="M 107.144531 18.753906 C 52.839844 18.753906 8.160156 59.6875 1.464844 112.132812 C 0.523438 116.425781 0 120.929688 0 125.953125 C 0 187.195312 46.769531 242.472656 91.449219 283.507812 C 136.019531 324.652344 180.59375 351.765625 180.59375 351.765625 L 187.5 356.058594 L 194.40625 351.765625 C 194.40625 351.765625 238.980469 324.652344 283.65625 283.507812 C 328.230469 242.472656 375 187.195312 375 125.953125 C 375 120.929688 374.476562 116.53125 373.640625 112.34375 C 366.839844 59.6875 322.265625 18.753906 267.855469 18.753906 C 234.585938 18.753906 207.066406 36.132812 187.5 60 C 167.933594 36.132812 140.414062 18.753906 107.144531 18.753906 Z M 107.144531 45.554688 C 136.648438 45.554688 161.96875 61.464844 175.992188 85.125 L 187.5 104.597656 L 199.007812 85.125 C 213.03125 61.464844 238.351562 45.554688 267.855469 45.554688 C 308.976562 45.554688 342.25 76.226562 347.167969 116.113281 L 347.378906 117.160156 C 347.898438 119.671875 348.214844 122.5 348.214844 125.953125 C 348.214844 172.855469 307.929688 224.777344 265.449219 263.828125 C 226.527344 299.734375 193.671875 319.730469 187.5 323.605469 C 181.328125 319.730469 148.472656 299.734375 109.445312 263.828125 C 67.070312 224.777344 26.785156 172.855469 26.785156 125.953125 C 26.785156 122.394531 27.101562 119.566406 27.621094 117.160156 L 27.832031 116.53125 L 27.832031 115.902344 C 32.855469 76.226562 66.023438 45.554688 107.144531 45.554688 Z M 107.144531 45.554688 "/>
</g>
</svg>
