<?xml version="1.0" standalone="no"?>
<!DOCTYPE svg PUBLIC "-//W3C//DTD SVG 20010904//EN"
 "http://www.w3.org/TR/2001/REC-SVG-20010904/DTD/svg10.dtd">
<svg version="1.0" xmlns="http://www.w3.org/2000/svg"
 width="500.000000pt" height="500.000000pt" viewBox="0 0 500.000000 500.000000"
 preserveAspectRatio="xMidYMid meet">
<metadata>
Created by potrace 1.16, written by Peter Selinger 2001-2019
</metadata>
<g transform="translate(0.000000,500.000000) scale(0.100000,-0.100000)"
fill="#000000" stroke="none">
<path d="M2135 4958 c-6 -16 19 -210 29 -226 9 -16 31 -15 44 1 7 8 8 38 1 92
-16 142 -17 145 -45 145 -13 0 -27 -6 -29 -12z"/>
<path d="M2565 4648 c-43 -25 -85 -93 -85 -136 0 -15 14 -37 34 -57 l34 -32
-40 -74 c-49 -91 -99 -159 -141 -195 -43 -37 -125 -74 -163 -74 -33 0 -140 69
-286 183 l-76 61 19 38 c26 50 24 91 -5 125 -21 24 -31 27 -78 27 -29 -1 -67
-8 -85 -17 -115 -60 -110 -210 7 -212 l39 0 25 -135 c31 -161 52 -311 62 -437
4 -58 12 -97 20 -104 10 -8 37 -7 106 4 207 35 307 42 603 42 285 0 479 -12
604 -36 42 -9 56 -8 66 3 9 8 18 64 25 147 12 150 39 312 72 446 l23 90 61 5
c68 6 91 19 111 68 11 27 11 37 -1 65 -41 99 -194 129 -256 50 -21 -27 -27
-87 -10 -98 22 -14 5 -38 -110 -158 -120 -124 -182 -170 -221 -160 -37 10
-100 97 -164 227 l-64 130 29 18 c38 23 50 47 50 102 0 36 -6 52 -28 77 -24
27 -37 33 -83 36 -43 3 -62 -1 -94 -19z m120 -44 c25 -10 37 -50 23 -79 -19
-42 -120 -61 -152 -29 -24 23 -20 42 18 80 34 34 71 43 111 28z m-11 -293 c23
-36 82 -135 130 -218 69 -120 92 -153 109 -153 13 0 74 53 172 150 83 83 153
150 156 150 4 0 -2 -35 -12 -77 -24 -104 -59 -345 -59 -410 0 -29 -3 -53 -7
-53 -5 0 -73 7 -153 16 -219 25 -705 25 -866 0 -129 -20 -177 -17 -217 14 -21
16 -25 31 -31 97 -7 77 -51 350 -63 387 -5 18 -3 18 23 -3 170 -130 403 -274
436 -269 33 5 137 135 208 262 89 157 109 188 121 180 6 -3 30 -36 53 -73z"/>
<path d="M1202 4228 c-18 -18 -15 -46 6 -52 50 -15 254 -47 267 -42 15 5 22
56 7 56 -10 0 -218 37 -248 45 -11 2 -26 -1 -32 -7z"/>
<path d="M1155 3325 c-215 -47 -426 -193 -554 -385 -71 -106 -115 -216 -138
-344 l-17 -96 -165 -2 -166 -3 -3 -57 -3 -58 169 0 169 0 12 -80 c31 -202 134
-398 279 -531 215 -197 518 -286 790 -230 194 40 327 109 466 242 198 187 303
464 278 728 l-8 82 29 25 c118 100 304 106 432 15 l39 -28 1 -164 c1 -148 4
-173 29 -253 108 -354 369 -585 736 -652 165 -30 389 5 555 88 122 61 267 188
344 301 74 108 133 265 149 395 l7 57 170 5 170 5 3 49 c2 32 -1 52 -10 57 -7
5 -86 9 -175 9 l-163 0 0 33 c0 114 -96 351 -190 468 -127 160 -320 282 -515
325 -97 22 -330 18 -428 -7 -181 -45 -355 -155 -479 -303 -56 -66 -134 -204
-158 -278 -6 -21 -14 -38 -16 -38 -2 0 -22 11 -42 24 -132 83 -318 85 -460 5
l-52 -29 -12 27 c-70 172 -129 263 -238 367 -125 119 -242 184 -408 227 -90
23 -330 25 -427 4z m145 -179 c0 -2 -128 -106 -285 -231 -157 -124 -285 -233
-285 -240 0 -14 39 -28 197 -71 l61 -17 -145 -186 c-80 -102 -149 -190 -153
-195 -25 -26 -55 214 -41 319 24 170 84 288 212 417 72 72 101 93 180 132 52
25 121 52 154 60 60 14 105 20 105 12z m220 -11 c310 -72 536 -340 557 -660 8
-126 -14 -233 -74 -355 -39 -79 -61 -109 -137 -186 -79 -79 -104 -98 -186
-137 -216 -103 -426 -103 -640 0 -81 39 -108 59 -185 137 -70 70 -99 108 -128
167 -42 85 -42 86 -24 86 21 0 602 444 602 460 0 11 -38 27 -135 55 -74 22
-137 41 -138 43 -2 2 69 94 159 204 l163 201 51 0 c27 0 79 -7 115 -15z m2313
-1 c207 -47 387 -189 481 -380 56 -116 70 -181 70 -329 0 -116 -3 -139 -28
-210 -146 -421 -607 -613 -1006 -417 -79 38 -109 60 -180 131 -145 145 -211
305 -211 511 0 129 16 195 78 320 39 79 61 109 132 180 71 71 103 94 182 133
52 26 124 54 160 61 88 20 235 19 322 0z m-2629 -116 c-5 -7 -57 -73 -116
-146 -60 -74 -106 -137 -103 -141 2 -4 65 -25 140 -47 74 -21 135 -41 134 -44
0 -3 -104 -84 -232 -180 -179 -134 -225 -165 -202 -135 16 22 69 91 118 154
49 62 85 117 80 121 -4 5 -59 24 -121 42 -62 18 -114 37 -114 43 -1 7 407 341
420 344 2 1 0 -5 -4 -11z"/>
<path d="M390 1275 c-14 -8 -55 -24 -92 -36 -59 -18 -68 -24 -68 -45 0 -17 6
-24 19 -24 37 0 42 -21 39 -196 l-3 -169 -32 -10 c-25 -7 -33 -15 -33 -32 l0
-23 160 0 160 0 0 23 c0 17 -8 25 -32 32 l-33 10 -3 150 c-1 83 0 159 2 171 9
36 52 74 85 74 55 0 62 -24 59 -221 l-3 -174 -32 -10 c-25 -7 -33 -15 -33 -32
l0 -23 160 0 160 0 0 23 c0 17 -8 25 -32 32 l-33 10 0 167 0 167 29 30 c21 22
39 31 63 31 51 0 57 -22 61 -211 3 -145 2 -168 -13 -182 -9 -9 -25 -17 -36
-17 -14 0 -19 -7 -19 -25 l0 -25 155 0 155 0 0 25 c0 18 -5 25 -18 25 -11 0
-26 8 -35 18 -15 16 -17 45 -17 193 0 196 -8 225 -69 266 -64 43 -182 23 -240
-41 -30 -32 -35 -32 -49 -1 -39 85 -193 87 -279 3 l-33 -32 0 41 c0 28 -5 43
-16 47 -21 8 -25 7 -54 -9z"/>
<path d="M4596 537 c-24 -17 -13 -57 15 -57 18 0 19 -8 19 -120 0 -126 -4
-135 -43 -106 -16 12 -25 12 -63 -6 -73 -32 -164 -4 -164 51 0 28 37 69 68 76
37 8 83 -10 89 -34 6 -22 34 -32 54 -20 20 12 19 107 -1 119 -8 5 -20 5 -28 1
-8 -4 -32 -5 -53 -1 -74 14 -143 -10 -172 -59 -39 -67 -25 -150 32 -188 28
-19 47 -23 110 -23 45 1 86 6 101 15 16 9 29 10 37 4 6 -6 40 -9 75 -7 57 3
63 5 66 26 3 17 -2 25 -17 29 -18 5 -21 13 -21 59 0 50 2 55 31 70 25 12 37
14 55 5 21 -9 24 -17 24 -70 0 -51 -3 -59 -21 -64 -15 -4 -20 -12 -17 -29 3
-22 7 -23 73 -23 66 0 70 1 73 23 3 17 -2 25 -17 29 -19 5 -21 13 -21 74 0 61
-3 72 -28 100 -23 26 -35 31 -74 31 -26 1 -54 -5 -63 -12 -13 -11 -15 -5 -15
54 l0 66 -43 0 c-24 0 -51 -6 -61 -13z"/>
<path d="M3710 511 c-5 -11 -10 -31 -10 -45 0 -18 -6 -25 -22 -28 -18 -2 -23
-10 -23 -33 0 -23 5 -31 23 -33 20 -3 22 -9 22 -67 0 -108 26 -136 123 -134
77 1 121 20 125 52 4 37 -15 42 -77 21 -41 -13 -58 -14 -77 -6 -22 10 -24 18
-24 71 l0 60 68 3 67 3 0 30 0 30 -67 3 -68 3 0 38 c0 26 -5 41 -16 45 -25 10
-33 7 -44 -13z"/>
<path d="M4085 440 c-47 -10 -74 -29 -95 -63 -40 -64 -15 -158 49 -192 36 -18
150 -19 201 -2 24 8 36 19 38 35 5 31 -19 37 -94 23 -56 -10 -68 -9 -101 6
l-38 18 118 3 117 3 0 30 c0 94 -95 162 -195 139z"/>
</g>
</svg>
