<?xml version="1.0" encoding="UTF-8"?>
<svg xmlns="http://www.w3.org/2000/svg" xmlns:xlink="http://www.w3.org/1999/xlink" width="375pt" height="374.999991pt" viewBox="0 0 375 374.999991" version="1.2">
<defs>
<clipPath id="clip1">
  <path d="M 0 181.703125 L 375 181.703125 L 375 323.453125 L 0 323.453125 Z M 0 181.703125 "/>
</clipPath>
<clipPath id="clip2">
  <path d="M 45 196 L 97 196 L 97 272 L 45 272 Z M 45 196 "/>
</clipPath>
<clipPath id="clip3">
  <path d="M 62.089844 186.265625 L 104.554688 198.710938 L 80.289062 281.480469 L 37.828125 269.03125 Z M 62.089844 186.265625 "/>
</clipPath>
<clipPath id="clip4">
  <path d="M 62.089844 186.265625 L 104.554688 198.710938 L 80.289062 281.480469 L 37.828125 269.03125 Z M 62.089844 186.265625 "/>
</clipPath>
</defs>
<g id="surface1">
<g clip-path="url(#clip1)" clip-rule="nonzero">
<path style=" stroke:none;fill-rule:nonzero;fill:rgb(6.269836%,6.269836%,6.669617%);fill-opacity:1;" d="M 372.464844 248.277344 L 347.847656 248.277344 C 345.546875 211.125 314.835938 181.707031 277.289062 181.707031 C 244.984375 181.707031 217.742188 203.484375 209.296875 233.230469 C 208.78125 232.796875 208.226562 232.359375 207.628906 231.925781 C 203.667969 229.035156 197.042969 225.605469 187.804688 225.453125 L 187.804688 225.445312 C 187.699219 225.445312 187.59375 225.449219 187.488281 225.449219 C 187.378906 225.449219 187.273438 225.445312 187.167969 225.445312 L 187.167969 225.453125 C 177.929688 225.605469 171.304688 229.035156 167.34375 231.925781 C 166.746094 232.359375 166.191406 232.796875 165.675781 233.230469 C 157.230469 203.484375 129.988281 181.707031 97.683594 181.707031 C 60.136719 181.707031 29.425781 211.125 27.125 248.277344 L 2.507812 248.277344 C 1.140625 248.277344 0.0234375 249.398438 0.0234375 250.773438 L 0.0234375 254.738281 C 0.0234375 256.113281 1.140625 257.238281 2.507812 257.238281 L 27.125 257.238281 C 29.425781 294.390625 60.136719 323.804688 97.683594 323.804688 C 136.726562 323.804688 168.378906 291.996094 168.378906 252.757812 C 168.378906 248.5625 168.015625 244.453125 167.320312 240.457031 C 168.210938 239.484375 169.535156 238.210938 171.304688 236.945312 C 175.960938 233.621094 181.402344 231.90625 187.488281 231.851562 C 193.570312 231.90625 199.011719 233.621094 203.667969 236.945312 C 205.4375 238.210938 206.761719 239.484375 207.652344 240.457031 C 206.957031 244.453125 206.59375 248.5625 206.59375 252.757812 C 206.59375 291.996094 238.246094 323.804688 277.292969 323.804688 C 314.839844 323.804688 345.550781 294.386719 347.851562 257.238281 L 372.464844 257.238281 C 373.832031 257.238281 374.949219 256.113281 374.949219 254.738281 L 374.949219 250.773438 C 374.972656 249.40625 373.863281 248.277344 372.488281 248.277344 Z M 148.039062 277.882812 C 145.628906 282.757812 142.535156 287.234375 138.886719 291.183594 C 133.339844 297.1875 126.507812 301.980469 118.832031 305.113281 C 114.179688 307.015625 109.21875 308.304688 104.042969 308.890625 C 101.957031 309.128906 99.832031 309.25 97.683594 309.25 C 66.640625 309.25 41.476562 283.960938 41.476562 252.761719 C 41.476562 240.710938 45.230469 229.539062 51.628906 220.367188 C 54.574219 216.148438 58.082031 212.351562 62.035156 209.085938 C 68.285156 203.929688 75.660156 200.101562 83.730469 198.03125 C 88.191406 196.882812 92.867188 196.273438 97.683594 196.273438 C 98.390625 196.273438 99.09375 196.289062 99.796875 196.316406 C 129.859375 197.433594 153.890625 222.277344 153.890625 252.761719 C 153.890625 261.789062 151.78125 270.316406 148.042969 277.882812 Z M 327.65625 277.882812 C 325.242188 282.757812 322.148438 287.234375 318.5 291.183594 C 312.953125 297.1875 306.125 301.980469 298.449219 305.113281 C 293.796875 307.015625 288.832031 308.304688 283.65625 308.890625 C 281.570312 309.128906 279.449219 309.25 277.296875 309.25 C 246.253906 309.25 221.089844 283.960938 221.089844 252.761719 C 221.089844 240.710938 224.847656 229.539062 231.246094 220.367188 C 234.191406 216.148438 237.695312 212.351562 241.652344 209.085938 C 247.898438 203.929688 255.273438 200.101562 263.347656 198.03125 C 267.808594 196.882812 272.480469 196.273438 277.296875 196.273438 C 278.003906 196.273438 278.710938 196.289062 279.414062 196.316406 C 309.476562 197.433594 333.503906 222.277344 333.503906 252.761719 C 333.503906 261.789062 331.398438 270.316406 327.65625 277.882812 Z M 327.65625 277.882812 "/>
</g>
<g clip-path="url(#clip2)" clip-rule="nonzero">
<g clip-path="url(#clip3)" clip-rule="nonzero">
<g clip-path="url(#clip4)" clip-rule="nonzero">
<path style=" stroke:none;fill-rule:nonzero;fill:rgb(45.098877%,45.098877%,45.098877%);fill-opacity:1;" d="M 50.804688 233.4375 L 70.652344 239.253906 C 70.910156 239.332031 71.117188 239.53125 71.199219 239.789062 C 71.28125 240.046875 71.230469 240.332031 71.0625 240.542969 L 50.929688 266.335938 L 90.96875 236.167969 L 69.050781 229.742188 C 68.789062 229.664062 68.585938 229.464844 68.503906 229.203125 C 68.421875 228.941406 68.476562 228.65625 68.652344 228.441406 L 89.882812 202.277344 Z M 46.246094 271.496094 C 46.117188 271.457031 45.996094 271.386719 45.894531 271.285156 C 45.609375 270.992188 45.585938 270.53125 45.835938 270.207031 L 69.035156 240.488281 L 48.835938 234.566406 C 48.542969 234.480469 48.324219 234.238281 48.265625 233.9375 C 48.207031 233.636719 48.320312 233.328125 48.558594 233.140625 L 94.757812 196.304688 C 95.082031 196.042969 95.550781 196.070312 95.84375 196.367188 C 96.136719 196.664062 96.160156 197.132812 95.894531 197.460938 L 70.691406 228.515625 L 92.992188 235.054688 C 93.289062 235.140625 93.507812 235.390625 93.5625 235.695312 C 93.617188 236 93.496094 236.308594 93.25 236.496094 L 46.96875 271.367188 C 46.753906 271.527344 46.488281 271.566406 46.246094 271.496094 "/>
</g>
</g>
</g>
<path style=" stroke:none;fill-rule:nonzero;fill:rgb(98.81897%,79.60968%,11.759949%);fill-opacity:1;" d="M 235.066406 157.753906 C 203.914062 153.191406 162.554688 152.527344 131.722656 158.90625 C 131.554688 140.8125 127.765625 122.972656 123.988281 105.28125 C 136.105469 116.289062 149.683594 125.699219 164.25 133.171875 C 175.074219 121.03125 184.207031 105.707031 190.121094 92.695312 C 196.035156 105.707031 205.203125 121.792969 212.59375 132.914062 C 224.410156 122.347656 233.882812 111.621094 244.054688 102.417969 C 237.433594 123.449219 235.066406 141.195312 234.832031 158.234375 "/>
<path style=" stroke:none;fill-rule:nonzero;fill:rgb(6.269836%,5.879211%,5.099487%);fill-opacity:1;" d="M 235.820312 155.015625 C 210.78125 151.652344 185.472656 150.367188 160.246094 152.25 C 151.953125 152.867188 138.617188 157.890625 134.191406 149.878906 C 134.828125 151.035156 131.757812 129.992188 131.945312 131.191406 C 130.523438 122.242188 128.597656 113.382812 126.726562 104.523438 C 125.144531 105.445312 123.5625 106.367188 121.984375 107.285156 C 134.714844 118.351562 147.945312 127.570312 162.816406 135.625 C 163.84375 136.179688 165.441406 136.15625 166.253906 135.183594 C 170.644531 129.917969 172.96875 127.246094 176.90625 121.605469 C 178.132812 119.847656 187.726562 101.320312 189.351562 100.800781 C 191.292969 100.183594 207.867188 130.804688 210.144531 134.34375 C 211.160156 135.921875 213.21875 136.195312 214.601562 134.921875 C 225.339844 125.007812 235.394531 114.414062 246.0625 104.425781 C 244.480469 103.503906 242.898438 102.582031 241.320312 101.664062 C 235.828125 120.410156 232.621094 138.726562 231.996094 158.234375 C 231.878906 161.890625 237.554688 161.886719 237.671875 158.234375 C 238.28125 139.308594 241.472656 121.320312 246.792969 103.171875 C 247.613281 100.371094 244.0625 98.523438 242.046875 100.410156 C 236.359375 105.738281 221.121094 126.207031 213.769531 125.582031 C 205.65625 124.890625 195.894531 98.230469 192.570312 91.261719 C 191.683594 89.398438 188.5625 89.414062 187.671875 91.261719 C 182.417969 102.15625 176.628906 117.53125 165.242188 122.78125 C 155.988281 127.050781 156.273438 125.882812 148.050781 120.355469 C 140.308594 115.160156 133.03125 109.386719 125.996094 103.273438 C 123.839844 101.394531 120.652344 103.195312 121.253906 106.035156 C 124.960938 123.589844 128.152344 140.929688 128.886719 158.90625 C 128.96875 160.863281 130.625 161.988281 132.476562 161.640625 C 166.015625 155.390625 200.589844 155.957031 234.3125 160.492188 C 237.882812 160.972656 239.429688 155.503906 235.820312 155.015625 "/>
<path style=" stroke:none;fill-rule:nonzero;fill:rgb(98.039246%,96.859741%,51.368713%);fill-opacity:1;" d="M 189.195312 95.644531 C 192.554688 96.207031 196.28125 94.933594 198.210938 92.125 C 200.136719 89.316406 199.808594 85.039062 197.175781 82.882812 C 195.949219 81.878906 194.367188 81.382812 192.789062 81.261719 C 187.527344 80.863281 182.316406 85.007812 181.523438 90.226562 C 181.394531 91.058594 181.375 91.941406 181.707031 92.710938 C 182.203125 93.847656 183.359375 94.535156 184.488281 95.035156 C 186.851562 96.085938 189.429688 96.660156 192.015625 96.714844 "/>
<path style=" stroke:none;fill-rule:nonzero;fill:rgb(6.269836%,5.879211%,5.099487%);fill-opacity:1;" d="M 189.195312 97.773438 C 194.867188 98.433594 200.941406 95.054688 201.511719 88.960938 C 202.066406 82.976562 197.191406 78.796875 191.402344 79.140625 C 185.6875 79.484375 180.464844 83.984375 179.46875 89.660156 C 178.230469 96.726562 186.625 98.574219 192.015625 98.847656 C 194.753906 98.980469 194.746094 94.722656 192.015625 94.585938 C 189.089844 94.441406 182.5625 93.707031 183.894531 89.441406 C 184.890625 86.257812 187.9375 83.816406 191.230469 83.441406 C 194.746094 83.035156 198.082031 85.382812 197.179688 89.234375 C 196.335938 92.820312 192.417969 93.890625 189.195312 93.515625 C 186.480469 93.199219 186.5 97.460938 189.195312 97.773438 "/>
<path style=" stroke:none;fill-rule:nonzero;fill:rgb(98.039246%,96.859741%,51.368713%);fill-opacity:1;" d="M 242.011719 102.003906 C 243.300781 102.855469 244.699219 103.539062 246.160156 104.035156 C 248.925781 104.976562 252.125 105.1875 254.636719 103.703125 C 257.152344 102.214844 258.515625 98.65625 256.925781 96.207031 C 256.394531 95.386719 255.605469 94.769531 254.808594 94.199219 C 252.636719 92.632812 250.117188 91.246094 247.441406 91.40625 C 246.1875 91.484375 244.972656 91.902344 243.824219 92.421875 C 242.503906 93.023438 241.175781 93.835938 240.535156 95.140625 C 239.71875 96.792969 240.261719 98.875 241.449219 100.292969 C 242.632812 101.707031 244.347656 102.566406 246.066406 103.234375 "/>
<path style=" stroke:none;fill-rule:nonzero;fill:rgb(6.269836%,5.879211%,5.099487%);fill-opacity:1;" d="M 240.9375 103.839844 C 245.722656 106.785156 253.058594 108.808594 257.5 104.089844 C 261.96875 99.347656 258.964844 94.042969 254.191406 91.242188 C 249.601562 88.542969 242.882812 88.558594 239.324219 93.125 C 235.21875 98.398438 240.929688 103.417969 245.503906 105.285156 C 248.035156 106.324219 249.140625 102.207031 246.632812 101.179688 C 243.089844 99.730469 240.273438 96.007812 245.265625 94.109375 C 248.046875 93.046875 250.5 93.835938 252.902344 95.460938 C 255.910156 97.488281 256.289062 101.21875 252.308594 102.398438 C 249.132812 103.335938 245.730469 101.792969 243.082031 100.164062 C 240.746094 98.726562 238.601562 102.40625 240.9375 103.839844 "/>
<path style=" stroke:none;fill-rule:nonzero;fill:rgb(98.039246%,96.859741%,51.368713%);fill-opacity:1;" d="M 124.660156 106.433594 C 127.625 104.726562 129.660156 101.496094 129.917969 98.085938 C 129.976562 97.3125 129.941406 96.507812 129.605469 95.8125 C 129.328125 95.242188 128.859375 94.78125 128.339844 94.414062 C 126.246094 92.949219 123.390625 93.027344 120.972656 93.871094 C 119.234375 94.476562 117.621094 95.445312 116.265625 96.695312 C 115.179688 97.703125 114.238281 98.925781 113.820312 100.351562 C 113.402344 101.777344 113.566406 103.421875 114.488281 104.585938 C 115.410156 105.75 116.929688 106.285156 118.40625 106.441406 C 121.730469 106.796875 125.191406 105.433594 127.382812 102.910156 "/>
<path style=" stroke:none;fill-rule:nonzero;fill:rgb(6.269836%,5.879211%,5.099487%);fill-opacity:1;" d="M 125.734375 108.269531 C 129.671875 105.753906 134.003906 99.589844 131.441406 94.738281 C 128.558594 89.277344 120.523438 90.980469 116.484375 93.820312 C 112.523438 96.601562 109.089844 102.71875 113.601562 106.71875 C 118.046875 110.65625 125.277344 108.175781 128.886719 104.414062 C 130.785156 102.4375 127.78125 99.421875 125.878906 101.402344 C 123.9375 103.421875 120.980469 104.960938 118.085938 104.246094 C 113.152344 103.027344 117.191406 98.316406 119.554688 96.890625 C 121.558594 95.675781 127.207031 93.800781 127.800781 97.695312 C 128.210938 100.410156 125.636719 103.28125 123.585938 104.59375 C 121.285156 106.066406 123.417969 109.753906 125.734375 108.269531 "/>
<path style=" stroke:none;fill-rule:nonzero;fill:rgb(6.269836%,5.879211%,5.099487%);fill-opacity:1;" d="M 100.839844 116.582031 C 94.507812 115.40625 88.179688 114.230469 81.851562 113.058594 C 79.171875 112.558594 78.023438 116.660156 80.71875 117.164062 C 87.046875 118.339844 93.375 119.511719 99.707031 120.6875 C 102.386719 121.183594 103.535156 117.082031 100.839844 116.582031 "/>
<path style=" stroke:none;fill-rule:nonzero;fill:rgb(6.269836%,5.879211%,5.099487%);fill-opacity:1;" d="M 110.875 82.769531 C 107.625 78.421875 103.539062 75.261719 98.519531 73.199219 C 95.984375 72.15625 94.886719 76.273438 97.386719 77.304688 C 101.277344 78.902344 104.683594 81.550781 107.199219 84.917969 C 108.820312 87.089844 112.515625 84.96875 110.875 82.769531 "/>
<path style=" stroke:none;fill-rule:nonzero;fill:rgb(6.269836%,5.879211%,5.099487%);fill-opacity:1;" d="M 158.285156 72.546875 C 157.820312 67.394531 157.183594 62.261719 156.402344 57.144531 C 155.988281 54.445312 151.886719 55.589844 152.296875 58.277344 C 153.023438 63.019531 153.59375 67.773438 154.027344 72.546875 C 154.273438 75.253906 158.53125 75.28125 158.285156 72.546875 "/>
<path style=" stroke:none;fill-rule:nonzero;fill:rgb(6.269836%,5.879211%,5.099487%);fill-opacity:1;" d="M 212.898438 69.5 C 213.277344 64.820312 214.085938 60.238281 215.277344 55.703125 C 215.976562 53.046875 211.867188 51.917969 211.171875 54.570312 C 209.882812 59.472656 209.050781 64.445312 208.640625 69.5 C 208.414062 72.230469 212.675781 72.214844 212.898438 69.5 "/>
<path style=" stroke:none;fill-rule:nonzero;fill:rgb(6.269836%,5.879211%,5.099487%);fill-opacity:1;" d="M 253.617188 74.800781 C 257.664062 72.792969 261.710938 70.78125 265.757812 68.773438 C 268.210938 67.550781 266.054688 63.878906 263.605469 65.09375 C 259.5625 67.105469 255.515625 69.113281 251.46875 71.121094 C 249.015625 72.34375 251.167969 76.015625 253.617188 74.800781 "/>
<path style=" stroke:none;fill-rule:nonzero;fill:rgb(6.269836%,5.879211%,5.099487%);fill-opacity:1;" d="M 272.21875 106.484375 C 276.003906 106.484375 279.792969 106.484375 283.578125 106.484375 C 286.316406 106.484375 286.324219 102.226562 283.578125 102.226562 C 279.792969 102.226562 276.003906 102.226562 272.21875 102.226562 C 269.476562 102.226562 269.472656 106.484375 272.21875 106.484375 "/>
<path style=" stroke:none;fill-rule:nonzero;fill:rgb(6.269836%,5.879211%,5.099487%);fill-opacity:1;" d="M 269.757812 133.335938 C 272.53125 132.9375 275.304688 132.539062 278.082031 132.144531 C 280.78125 131.757812 279.632812 127.65625 276.949219 128.039062 C 274.171875 128.433594 271.398438 128.832031 268.625 129.230469 C 265.921875 129.617188 267.074219 133.722656 269.757812 133.335938 "/>
</g>
</svg>
